<svg width="9" height="13" viewBox="0 0 9 13" fill="none" xmlns="http://www.w3.org/2000/svg">
<path d="M5.72735 5.60564C6.17927 5.60564 6.54564 5.99425 6.54564 6.47359C6.54564 6.95282 6.17927 7.34143 5.72735 7.34143C5.27555 7.34143 4.90918 6.95282 4.90918 6.47359C4.90918 5.99425 5.27555 5.60564 5.72735 5.60564Z" fill="#1E1E1E"/>
<path d="M4.09045 9.07723C4.09045 9.55646 3.72408 9.94507 3.27228 9.94507C2.82088 9.94507 2.4541 9.55646 2.4541 9.07723C2.4541 8.59789 2.82088 8.20916 3.27228 8.20916C3.72408 8.20927 4.09045 8.59789 4.09045 9.07723Z" fill="#1E1E1E"/>
<path d="M4.09045 3.87043C4.09045 4.34966 3.72408 4.73816 3.27228 4.73816C2.82088 4.73816 2.4541 4.34966 2.4541 3.87043C2.4541 3.39109 2.82088 3.00237 3.27228 3.00237C3.72408 3.00259 4.09045 3.39109 4.09045 3.87043Z" fill="#1E1E1E"/>
<path d="M1.63613 11.6805C1.63613 12.1598 1.26998 12.5483 0.818067 12.5483C0.366667 12.5483 -1.67727e-08 12.1598 -3.74676e-08 11.6805C-5.81575e-08 11.2013 0.366694 10.8127 0.818067 10.8127C1.26998 10.8128 1.63613 11.2013 1.63613 11.6805Z" fill="#1E1E1E"/>
<path d="M1.63646 1.26668C1.63646 1.74591 1.27009 2.13452 0.818067 2.13452C0.366667 2.13452 -1.67777e-08 1.74591 -3.74676e-08 1.26668C0.000104911 0.787538 0.366882 0.398842 0.818282 0.398842C1.27019 0.398842 1.63646 0.787567 1.63646 1.26668Z" fill="#1E1E1E"/>
<path d="M8.18146 5.60564C8.63337 5.60564 8.99963 5.99425 8.99963 6.47359C8.99963 6.95282 8.63337 7.34143 8.18146 7.34143C7.72955 7.34143 7.36328 6.95282 7.36328 6.47359C7.36328 5.99425 7.72955 5.60564 8.18146 5.60564Z" fill="#1E1E1E"/>
<path d="M6.54553 9.07711C6.54553 9.55634 6.17926 9.94495 5.72735 9.94495C5.27606 9.94495 4.90918 9.55634 4.90918 9.07711C4.90918 8.59776 5.27606 8.20904 5.72735 8.20904C6.17916 8.20915 6.54553 8.59776 6.54553 9.07711Z" fill="#1E1E1E"/>
<path d="M6.54553 3.87043C6.54553 4.34966 6.17926 4.73816 5.72735 4.73816C5.27606 4.73816 4.90918 4.34966 4.90918 3.87043C4.90918 3.39109 5.27606 3.00259 5.72735 3.00259C6.17916 3.00259 6.54553 3.39109 6.54553 3.87043Z" fill="#1E1E1E"/>
<path d="M4.09143 11.6805C4.09143 12.1598 3.72506 12.5483 3.27325 12.5483C2.82185 12.5483 2.45508 12.1598 2.45508 11.6805C2.45508 11.2013 2.82185 10.8127 3.27325 10.8127C3.72506 10.8128 4.09143 11.2013 4.09143 11.6805Z" fill="#1E1E1E"/>
<path d="M4.09143 1.26668C4.09143 1.74591 3.72506 2.13452 3.27325 2.13452C2.82185 2.13452 2.45508 1.74591 2.45508 1.26668C2.45497 0.78754 2.82177 0.398844 3.27325 0.398844C3.72506 0.398844 4.09143 0.787568 4.09143 1.26668Z" fill="#1E1E1E"/>
</svg>
