<svg width="21" height="20" viewBox="0 0 21 20" fill="none" xmlns="http://www.w3.org/2000/svg">
<path d="M19.079 9.05078H2.70531C1.71271 9.05078 0.908203 9.46935 0.908203 9.98578C0.908203 10.5022 1.71271 10.9208 2.70531 10.9208H19.079C20.0716 10.9208 20.8761 10.5022 20.8761 9.98578C20.8761 9.46935 20.0716 9.05078 19.079 9.05078Z" fill="#363636"/>
<path d="M9.95703 1.79896L9.95703 18.1726C9.95703 19.1652 10.3756 19.9697 10.892 19.9697C11.4085 19.9697 11.827 19.1652 11.827 18.1726L11.827 1.79896C11.827 0.806356 11.4085 0.00185204 10.892 0.00185204C10.3756 0.00185204 9.95703 0.806356 9.95703 1.79896Z" fill="#363636"/>
</svg>
