<svg width="21" height="21" viewBox="0 0 21 21" fill="none" xmlns="http://www.w3.org/2000/svg">
<path d="M19.079 9.74902H2.70531C1.71271 9.74902 0.908203 10.1676 0.908203 10.684C0.908203 11.2005 1.71271 11.619 2.70531 11.619H19.079C20.0716 11.619 20.8761 11.2005 20.8761 10.684C20.8761 10.1676 20.0716 9.74902 19.079 9.74902Z" fill="#363636"/>
<path d="M9.95703 2.4972L9.95703 18.8709C9.95703 19.8635 10.3756 20.668 10.892 20.668C11.4085 20.668 11.827 19.8635 11.827 18.8709L11.827 2.4972C11.827 1.5046 11.4085 0.700094 10.892 0.700094C10.3756 0.700094 9.95703 1.5046 9.95703 2.4972Z" fill="#363636"/>
</svg>
