<svg width="9" height="13" viewBox="0 0 9 13" fill="none" xmlns="http://www.w3.org/2000/svg">
<path d="M5.72735 5.20683C6.17927 5.20683 6.54564 5.59544 6.54564 6.07479C6.54564 6.55402 6.17927 6.94263 5.72735 6.94263C5.27555 6.94263 4.90918 6.55402 4.90918 6.07479C4.90918 5.59544 5.27555 5.20683 5.72735 5.20683Z" fill="#1E1E1E"/>
<path d="M4.09045 8.67843C4.09045 9.15765 3.72408 9.54626 3.27228 9.54626C2.82088 9.54626 2.4541 9.15765 2.4541 8.67843C2.4541 8.19908 2.82088 7.81036 3.27228 7.81036C3.72408 7.81047 4.09045 8.19908 4.09045 8.67843Z" fill="#1E1E1E"/>
<path d="M4.09045 3.47163C4.09045 3.95086 3.72408 4.33936 3.27228 4.33936C2.82088 4.33936 2.4541 3.95086 2.4541 3.47163C2.4541 2.99229 2.82088 2.60356 3.27228 2.60356C3.72408 2.60378 4.09045 2.99229 4.09045 3.47163Z" fill="#1E1E1E"/>
<path d="M1.63613 11.2817C1.63613 11.761 1.26998 12.1495 0.818067 12.1495C0.366667 12.1495 -1.67727e-08 11.761 -3.74676e-08 11.2817C-5.81575e-08 10.8025 0.366694 10.4139 0.818067 10.4139C1.26998 10.414 1.63613 10.8025 1.63613 11.2817Z" fill="#1E1E1E"/>
<path d="M1.63646 0.867878C1.63646 1.34711 1.27009 1.73572 0.818067 1.73572C0.366667 1.73572 -1.67777e-08 1.34711 -3.74676e-08 0.867878C0.000104911 0.388735 0.366882 3.81307e-05 0.818282 3.81108e-05C1.27019 3.80908e-05 1.63646 0.388763 1.63646 0.867878Z" fill="#1E1E1E"/>
<path d="M8.18146 5.20683C8.63337 5.20683 8.99963 5.59544 8.99963 6.07479C8.99963 6.55402 8.63337 6.94263 8.18146 6.94263C7.72955 6.94263 7.36328 6.55402 7.36328 6.07479C7.36328 5.59544 7.72955 5.20683 8.18146 5.20683Z" fill="#1E1E1E"/>
<path d="M6.54553 8.6783C6.54553 9.15753 6.17926 9.54614 5.72735 9.54614C5.27606 9.54614 4.90918 9.15753 4.90918 8.6783C4.90918 8.19896 5.27606 7.81024 5.72735 7.81024C6.17916 7.81035 6.54553 8.19896 6.54553 8.6783Z" fill="#1E1E1E"/>
<path d="M6.54553 3.47163C6.54553 3.95086 6.17926 4.33936 5.72735 4.33936C5.27606 4.33936 4.90918 3.95086 4.90918 3.47163C4.90918 2.99229 5.27606 2.60379 5.72735 2.60379C6.17916 2.60379 6.54553 2.99229 6.54553 3.47163Z" fill="#1E1E1E"/>
<path d="M4.09143 11.2817C4.09143 11.761 3.72506 12.1495 3.27325 12.1495C2.82185 12.1495 2.45508 11.761 2.45508 11.2817C2.45508 10.8025 2.82185 10.4139 3.27325 10.4139C3.72506 10.414 4.09143 10.8025 4.09143 11.2817Z" fill="#1E1E1E"/>
<path d="M4.09143 0.867879C4.09143 1.34711 3.72506 1.73572 3.27325 1.73572C2.82185 1.73572 2.45508 1.34711 2.45508 0.867879C2.45497 0.388736 2.82177 4.00381e-05 3.27325 4.00181e-05C3.72506 3.99981e-05 4.09143 0.388765 4.09143 0.867879Z" fill="#1E1E1E"/>
</svg>
