<svg width="21" height="21" viewBox="0 0 21 21" fill="none" xmlns="http://www.w3.org/2000/svg">
<path d="M19.079 9.34668H2.70531C1.71271 9.34668 0.908203 9.76525 0.908203 10.2817C0.908203 10.7981 1.71271 11.2167 2.70531 11.2167H19.079C20.0716 11.2167 20.8761 10.7981 20.8761 10.2817C20.8761 9.76525 20.0716 9.34668 19.079 9.34668Z" fill="#363636"/>
<path d="M9.95703 2.09486L9.95703 18.4685C9.95703 19.4611 10.3756 20.2656 10.892 20.2656C11.4085 20.2656 11.827 19.4611 11.827 18.4685L11.827 2.09486C11.827 1.10225 11.4085 0.29775 10.892 0.29775C10.3756 0.29775 9.95703 1.10225 9.95703 2.09486Z" fill="#363636"/>
</svg>
