<svg width="10" height="13" viewBox="0 0 10 13" fill="none" xmlns="http://www.w3.org/2000/svg">
<path d="M6.39044 6.00407C6.84235 6.00407 7.20872 6.39269 7.20872 6.87203C7.20872 7.35126 6.84235 7.73987 6.39044 7.73987C5.93864 7.73987 5.57227 7.35126 5.57227 6.87203C5.57227 6.39269 5.93864 6.00407 6.39044 6.00407Z" fill="#1E1E1E"/>
<path d="M4.75354 9.47567C4.75354 9.95489 4.38717 10.3435 3.93536 10.3435C3.48396 10.3435 3.11719 9.95489 3.11719 9.47567C3.11719 8.99632 3.48396 8.6076 3.93536 8.6076C4.38717 8.60771 4.75354 8.99632 4.75354 9.47567Z" fill="#1E1E1E"/>
<path d="M4.75354 4.26887C4.75354 4.7481 4.38717 5.1366 3.93536 5.1366C3.48396 5.1366 3.11719 4.7481 3.11719 4.26887C3.11719 3.78953 3.48396 3.4008 3.93536 3.4008C4.38717 3.40103 4.75354 3.78953 4.75354 4.26887Z" fill="#1E1E1E"/>
<path d="M2.29922 12.0789C2.29922 12.5583 1.93306 12.9468 1.48115 12.9468C1.02975 12.9468 0.663086 12.5583 0.663086 12.0789C0.663086 11.5997 1.02978 11.2111 1.48115 11.2111C1.93306 11.2112 2.29922 11.5997 2.29922 12.0789Z" fill="#1E1E1E"/>
<path d="M2.29954 1.66512C2.29954 2.14435 1.93317 2.53296 1.48115 2.53296C1.02975 2.53296 0.663086 2.14435 0.663086 1.66512C0.663191 1.18598 1.02997 0.797279 1.48137 0.797279C1.93328 0.797279 2.29954 1.186 2.29954 1.66512Z" fill="#1E1E1E"/>
<path d="M8.84454 6.00408C9.29645 6.00407 9.66272 6.39269 9.66272 6.87203C9.66272 7.35126 9.29645 7.73987 8.84454 7.73987C8.39263 7.73987 8.02637 7.35126 8.02637 6.87203C8.02637 6.39269 8.39263 6.00408 8.84454 6.00408Z" fill="#1E1E1E"/>
<path d="M7.20861 9.47554C7.20861 9.95477 6.84235 10.3434 6.39044 10.3434C5.93915 10.3434 5.57227 9.95477 5.57227 9.47554C5.57227 8.9962 5.93915 8.60748 6.39044 8.60748C6.84224 8.60759 7.20861 8.9962 7.20861 9.47554Z" fill="#1E1E1E"/>
<path d="M7.20861 4.26887C7.20861 4.7481 6.84235 5.1366 6.39044 5.1366C5.93915 5.1366 5.57227 4.7481 5.57227 4.26887C5.57227 3.78953 5.93915 3.40103 6.39044 3.40103C6.84224 3.40103 7.20861 3.78953 7.20861 4.26887Z" fill="#1E1E1E"/>
<path d="M4.75354 12.0789C4.75354 12.5583 4.38717 12.9468 3.93536 12.9468C3.48396 12.9468 3.11719 12.5583 3.11719 12.0789C3.11719 11.5997 3.48396 11.2111 3.93536 11.2111C4.38717 11.2112 4.75354 11.5997 4.75354 12.0789Z" fill="#1E1E1E"/>
<path d="M4.75451 1.66512C4.75451 2.14435 4.38814 2.53296 3.93634 2.53296C3.48494 2.53296 3.11816 2.14435 3.11816 1.66512C3.11806 1.18598 3.48486 0.797281 3.93634 0.797281C4.38814 0.797281 4.75451 1.18601 4.75451 1.66512Z" fill="#1E1E1E"/>
</svg>
