<svg width="10" height="13" viewBox="0 0 10 13" fill="none" xmlns="http://www.w3.org/2000/svg">
<path d="M6.39044 5.403C6.84235 5.403 7.20872 5.79161 7.20872 6.27095C7.20872 6.75018 6.84235 7.13879 6.39044 7.13879C5.93864 7.13879 5.57227 6.75018 5.57227 6.27095C5.57227 5.79161 5.93864 5.403 6.39044 5.403Z" fill="#1E1E1E"/>
<path d="M4.75354 8.87459C4.75354 9.35382 4.38717 9.74243 3.93536 9.74243C3.48396 9.74243 3.11719 9.35382 3.11719 8.87459C3.11719 8.39525 3.48396 8.00653 3.93536 8.00653C4.38717 8.00664 4.75354 8.39525 4.75354 8.87459Z" fill="#1E1E1E"/>
<path d="M4.75354 3.6678C4.75354 4.14703 4.38717 4.53552 3.93536 4.53552C3.48396 4.53552 3.11719 4.14703 3.11719 3.6678C3.11719 3.18845 3.48396 2.79973 3.93536 2.79973C4.38717 2.79995 4.75354 3.18845 4.75354 3.6678Z" fill="#1E1E1E"/>
<path d="M2.29922 11.4779C2.29922 11.9572 1.93306 12.3457 1.48115 12.3457C1.02975 12.3457 0.663086 11.9572 0.663086 11.4779C0.663086 10.9986 1.02978 10.61 1.48115 10.61C1.93306 10.6101 2.29922 10.9986 2.29922 11.4779Z" fill="#1E1E1E"/>
<path d="M2.29954 1.06404C2.29954 1.54327 1.93317 1.93188 1.48115 1.93188C1.02975 1.93188 0.663086 1.54327 0.663086 1.06404C0.663191 0.584902 1.02997 0.196205 1.48137 0.196205C1.93328 0.196205 2.29954 0.58493 2.29954 1.06404Z" fill="#1E1E1E"/>
<path d="M8.84454 5.403C9.29645 5.403 9.66272 5.79161 9.66272 6.27095C9.66272 6.75018 9.29645 7.13879 8.84454 7.13879C8.39263 7.13879 8.02637 6.75018 8.02637 6.27095C8.02637 5.79161 8.39263 5.403 8.84454 5.403Z" fill="#1E1E1E"/>
<path d="M7.20861 8.87447C7.20861 9.3537 6.84235 9.74231 6.39044 9.74231C5.93915 9.74231 5.57227 9.3537 5.57227 8.87447C5.57227 8.39513 5.93915 8.0064 6.39044 8.0064C6.84224 8.00651 7.20861 8.39513 7.20861 8.87447Z" fill="#1E1E1E"/>
<path d="M7.20861 3.6678C7.20861 4.14703 6.84235 4.53552 6.39044 4.53552C5.93915 4.53552 5.57227 4.14703 5.57227 3.6678C5.57227 3.18845 5.93915 2.79996 6.39044 2.79996C6.84224 2.79996 7.20861 3.18845 7.20861 3.6678Z" fill="#1E1E1E"/>
<path d="M4.75354 11.4779C4.75354 11.9572 4.38717 12.3457 3.93536 12.3457C3.48396 12.3457 3.11719 11.9572 3.11719 11.4779C3.11719 10.9986 3.48396 10.61 3.93536 10.61C4.38717 10.6101 4.75354 10.9986 4.75354 11.4779Z" fill="#1E1E1E"/>
<path d="M4.75451 1.06405C4.75451 1.54327 4.38814 1.93188 3.93634 1.93188C3.48494 1.93188 3.11816 1.54327 3.11816 1.06405C3.11806 0.584903 3.48486 0.196207 3.93634 0.196207C4.38814 0.196207 4.75451 0.584932 4.75451 1.06405Z" fill="#1E1E1E"/>
</svg>
