<svg width="10" height="13" viewBox="0 0 10 13" fill="none" xmlns="http://www.w3.org/2000/svg">
<path d="M6.39044 5.60515C6.84235 5.60515 7.20872 5.99376 7.20872 6.4731C7.20872 6.95233 6.84235 7.34094 6.39044 7.34094C5.93864 7.34094 5.57227 6.95233 5.57227 6.4731C5.57227 5.99376 5.93864 5.60515 6.39044 5.60515Z" fill="#1E1E1E"/>
<path d="M4.75354 9.07674C4.75354 9.55597 4.38717 9.94458 3.93536 9.94458C3.48396 9.94458 3.11719 9.55597 3.11719 9.07674C3.11719 8.5974 3.48396 8.20867 3.93536 8.20867C4.38717 8.20879 4.75354 8.5974 4.75354 9.07674Z" fill="#1E1E1E"/>
<path d="M4.75354 3.86995C4.75354 4.34917 4.38717 4.73767 3.93536 4.73767C3.48396 4.73767 3.11719 4.34917 3.11719 3.86995C3.11719 3.3906 3.48396 3.00188 3.93536 3.00188C4.38717 3.0021 4.75354 3.3906 4.75354 3.86995Z" fill="#1E1E1E"/>
<path d="M2.29922 11.68C2.29922 12.1594 1.93306 12.5479 1.48115 12.5479C1.02975 12.5479 0.663086 12.1594 0.663086 11.68C0.663086 11.2008 1.02978 10.8122 1.48115 10.8122C1.93306 10.8123 2.29922 11.2008 2.29922 11.68Z" fill="#1E1E1E"/>
<path d="M2.29954 1.26619C2.29954 1.74542 1.93317 2.13403 1.48115 2.13403C1.02975 2.13403 0.663086 1.74542 0.663086 1.26619C0.663191 0.78705 1.02997 0.398354 1.48137 0.398354C1.93328 0.398354 2.29954 0.787079 2.29954 1.26619Z" fill="#1E1E1E"/>
<path d="M8.84454 5.60515C9.29645 5.60515 9.66272 5.99376 9.66272 6.4731C9.66272 6.95233 9.29645 7.34094 8.84454 7.34094C8.39263 7.34094 8.02637 6.95233 8.02637 6.4731C8.02637 5.99376 8.39263 5.60515 8.84454 5.60515Z" fill="#1E1E1E"/>
<path d="M7.20861 9.07662C7.20861 9.55585 6.84235 9.94446 6.39044 9.94446C5.93915 9.94446 5.57227 9.55585 5.57227 9.07662C5.57227 8.59728 5.93915 8.20855 6.39044 8.20855C6.84224 8.20866 7.20861 8.59728 7.20861 9.07662Z" fill="#1E1E1E"/>
<path d="M7.20861 3.86995C7.20861 4.34917 6.84235 4.73767 6.39044 4.73767C5.93915 4.73767 5.57227 4.34917 5.57227 3.86995C5.57227 3.3906 5.93915 3.00211 6.39044 3.00211C6.84224 3.00211 7.20861 3.3906 7.20861 3.86995Z" fill="#1E1E1E"/>
<path d="M4.75354 11.68C4.75354 12.1594 4.38717 12.5479 3.93536 12.5479C3.48396 12.5479 3.11719 12.1594 3.11719 11.68C3.11719 11.2008 3.48396 10.8122 3.93536 10.8122C4.38717 10.8123 4.75354 11.2008 4.75354 11.68Z" fill="#1E1E1E"/>
<path d="M4.75451 1.26619C4.75451 1.74542 4.38814 2.13403 3.93634 2.13403C3.48494 2.13403 3.11816 1.74542 3.11816 1.26619C3.11806 0.787052 3.48486 0.398355 3.93634 0.398355C4.38814 0.398355 4.75451 0.78708 4.75451 1.26619Z" fill="#1E1E1E"/>
</svg>
