<svg width="83" height="96" viewBox="0 0 83 96" fill="none" xmlns="http://www.w3.org/2000/svg">
<g clip-path="url(#clip0_150_1563)">
<path d="M2.96062 4.7666C4.24731 4.7666 5.29038 3.72254 5.29038 2.43463C5.29038 1.14672 4.24731 0.102661 2.96062 0.102661C1.67393 0.102661 0.630859 1.14672 0.630859 2.43463C0.630859 3.72254 1.67393 4.7666 2.96062 4.7666Z" fill="#86BE3F" fill-opacity="0.58"/>
<path d="M2.96062 22.8735C4.24731 22.8735 5.29038 21.8295 5.29038 20.5416C5.29038 19.2537 4.24731 18.2096 2.96062 18.2096C1.67393 18.2096 0.630859 19.2537 0.630859 20.5416C0.630859 21.8295 1.67393 22.8735 2.96062 22.8735Z" fill="#86BE3F" fill-opacity="0.58"/>
<path d="M2.96062 40.981C4.24731 40.981 5.29038 39.9369 5.29038 38.649C5.29038 37.3611 4.24731 36.317 2.96062 36.317C1.67393 36.317 0.630859 37.3611 0.630859 38.649C0.630859 39.9369 1.67393 40.981 2.96062 40.981Z" fill="#86BE3F" fill-opacity="0.58"/>
<path d="M2.96062 59.2251C4.24731 59.2251 5.29038 58.181 5.29038 56.8931C5.29038 55.6052 4.24731 54.5612 2.96062 54.5612C1.67393 54.5612 0.630859 55.6052 0.630859 56.8931C0.630859 58.181 1.67393 59.2251 2.96062 59.2251Z" fill="#86BE3F" fill-opacity="0.58"/>
<path d="M2.96062 77.332C4.24731 77.332 5.29038 76.288 5.29038 75.0001C5.29038 73.7121 4.24731 72.6681 2.96062 72.6681C1.67393 72.6681 0.630859 73.7121 0.630859 75.0001C0.630859 76.288 1.67393 77.332 2.96062 77.332Z" fill="#86BE3F" fill-opacity="0.58"/>
<path d="M2.96062 90.775C1.72722 90.775 0.630859 91.8724 0.630859 93.107C0.630859 94.3416 1.72722 95.439 2.96062 95.439C4.19402 95.439 5.29038 94.3416 5.29038 93.107C5.29038 91.8724 4.33107 90.775 2.96062 90.775Z" fill="#86BE3F" fill-opacity="0.58"/>
<path d="M18.9948 0.102661C17.7614 0.102661 16.665 1.20006 16.665 2.43463C16.665 3.6692 17.7614 4.7666 18.9948 4.7666C20.2282 4.7666 21.3246 3.6692 21.3246 2.43463C21.3246 1.20006 20.3652 0.102661 18.9948 0.102661Z" fill="#86BE3F" fill-opacity="0.58"/>
<path d="M18.9948 18.2096C17.7614 18.2096 16.665 19.307 16.665 20.5416C16.665 21.7761 17.7614 22.8735 18.9948 22.8735C20.2282 22.8735 21.3246 21.7761 21.3246 20.5416C21.3246 19.307 20.3652 18.2096 18.9948 18.2096Z" fill="#86BE3F" fill-opacity="0.58"/>
<path d="M18.9948 36.317C17.7614 36.317 16.665 37.4144 16.665 38.649C16.665 39.8836 17.7614 40.981 18.9948 40.981C20.2282 40.981 21.3246 39.8836 21.3246 38.649C21.3246 37.4144 20.3652 36.317 18.9948 36.317Z" fill="#86BE3F" fill-opacity="0.58"/>
<path d="M18.9948 54.5612C17.7614 54.5612 16.665 55.6586 16.665 56.8931C16.665 58.1277 17.7614 59.2251 18.9948 59.2251C20.2282 59.2251 21.3246 58.1277 21.3246 56.8931C21.3246 55.5214 20.3652 54.5612 18.9948 54.5612Z" fill="#86BE3F" fill-opacity="0.58"/>
<path d="M18.9948 72.6681C17.7614 72.6681 16.665 73.7655 16.665 75.0001C16.665 76.2346 17.7614 77.332 18.9948 77.332C20.2282 77.332 21.3246 76.2346 21.3246 75.0001C21.3246 73.6283 20.3652 72.6681 18.9948 72.6681Z" fill="#86BE3F" fill-opacity="0.58"/>
<path d="M18.9948 90.775C17.7614 90.775 16.665 91.8724 16.665 93.107C16.665 94.3416 17.7614 95.439 18.9948 95.439C20.2282 95.439 21.3246 94.3416 21.3246 93.107C21.3246 91.8724 20.3652 90.775 18.9948 90.775Z" fill="#86BE3F" fill-opacity="0.58"/>
<path d="M35.029 0.102661C33.7956 0.102661 32.6992 1.20006 32.6992 2.43463C32.6992 3.6692 33.7956 4.7666 35.029 4.7666C36.2624 4.7666 37.3587 3.6692 37.3587 2.43463C37.3587 1.20006 36.3994 0.102661 35.029 0.102661Z" fill="#86BE3F" fill-opacity="0.58"/>
<path d="M35.029 18.2096C33.7956 18.2096 32.6992 19.307 32.6992 20.5416C32.6992 21.7761 33.7956 22.8735 35.029 22.8735C36.2624 22.8735 37.3587 21.7761 37.3587 20.5416C37.3587 19.307 36.3994 18.2096 35.029 18.2096Z" fill="#86BE3F" fill-opacity="0.58"/>
<path d="M35.029 36.317C33.7956 36.317 32.6992 37.4144 32.6992 38.649C32.6992 39.8836 33.7956 40.981 35.029 40.981C36.2624 40.981 37.3587 39.8836 37.3587 38.649C37.3587 37.4144 36.3994 36.317 35.029 36.317Z" fill="#86BE3F" fill-opacity="0.58"/>
<path d="M35.029 54.5612C33.7956 54.5612 32.6992 55.6586 32.6992 56.8931C32.6992 58.1277 33.7956 59.2251 35.029 59.2251C36.2624 59.2251 37.3587 58.1277 37.3587 56.8931C37.3587 55.5214 36.3994 54.5612 35.029 54.5612Z" fill="#86BE3F" fill-opacity="0.58"/>
<path d="M35.029 72.6681C33.7956 72.6681 32.6992 73.7655 32.6992 75.0001C32.6992 76.2346 33.7956 77.332 35.029 77.332C36.2624 77.332 37.3587 76.2346 37.3587 75.0001C37.3587 73.6283 36.3994 72.6681 35.029 72.6681Z" fill="#86BE3F" fill-opacity="0.58"/>
<path d="M35.029 90.775C33.7956 90.775 32.6992 91.8724 32.6992 93.107C32.6992 94.3416 33.7956 95.439 35.029 95.439C36.2624 95.439 37.3587 94.3416 37.3587 93.107C37.3587 91.8724 36.3994 90.775 35.029 90.775Z" fill="#86BE3F" fill-opacity="0.58"/>
</g>
<g clip-path="url(#clip1_150_1563)">
<path d="M48.3044 4.7666C49.5911 4.7666 50.6341 3.72254 50.6341 2.43463C50.6341 1.14672 49.5911 0.102661 48.3044 0.102661C47.0177 0.102661 45.9746 1.14672 45.9746 2.43463C45.9746 3.72254 47.0177 4.7666 48.3044 4.7666Z" fill="#86BE3F" fill-opacity="0.58"/>
<path d="M48.3044 22.8735C49.5911 22.8735 50.6341 21.8295 50.6341 20.5416C50.6341 19.2537 49.5911 18.2096 48.3044 18.2096C47.0177 18.2096 45.9746 19.2537 45.9746 20.5416C45.9746 21.8295 47.0177 22.8735 48.3044 22.8735Z" fill="#86BE3F" fill-opacity="0.58"/>
<path d="M48.3044 40.981C49.5911 40.981 50.6341 39.9369 50.6341 38.649C50.6341 37.3611 49.5911 36.317 48.3044 36.317C47.0177 36.317 45.9746 37.3611 45.9746 38.649C45.9746 39.9369 47.0177 40.981 48.3044 40.981Z" fill="#86BE3F" fill-opacity="0.58"/>
<path d="M48.3044 59.2251C49.5911 59.2251 50.6341 58.181 50.6341 56.8931C50.6341 55.6052 49.5911 54.5612 48.3044 54.5612C47.0177 54.5612 45.9746 55.6052 45.9746 56.8931C45.9746 58.181 47.0177 59.2251 48.3044 59.2251Z" fill="#86BE3F" fill-opacity="0.58"/>
<path d="M48.3044 77.332C49.5911 77.332 50.6341 76.288 50.6341 75.0001C50.6341 73.7121 49.5911 72.6681 48.3044 72.6681C47.0177 72.6681 45.9746 73.7121 45.9746 75.0001C45.9746 76.288 47.0177 77.332 48.3044 77.332Z" fill="#86BE3F" fill-opacity="0.58"/>
<path d="M48.3044 90.775C47.071 90.775 45.9746 91.8724 45.9746 93.107C45.9746 94.3416 47.071 95.439 48.3044 95.439C49.5378 95.439 50.6341 94.3416 50.6341 93.107C50.6341 91.8724 49.6748 90.775 48.3044 90.775Z" fill="#86BE3F" fill-opacity="0.58"/>
<path d="M64.3385 0.102661C63.1051 0.102661 62.0088 1.20006 62.0088 2.43463C62.0088 3.6692 63.1051 4.7666 64.3385 4.7666C65.572 4.7666 66.6683 3.6692 66.6683 2.43463C66.6683 1.20006 65.709 0.102661 64.3385 0.102661Z" fill="#86BE3F" fill-opacity="0.58"/>
<path d="M64.3385 18.2096C63.1051 18.2096 62.0088 19.307 62.0088 20.5416C62.0088 21.7761 63.1051 22.8735 64.3385 22.8735C65.572 22.8735 66.6683 21.7761 66.6683 20.5416C66.6683 19.307 65.709 18.2096 64.3385 18.2096Z" fill="#86BE3F" fill-opacity="0.58"/>
<path d="M64.3385 36.317C63.1051 36.317 62.0088 37.4144 62.0088 38.649C62.0088 39.8836 63.1051 40.981 64.3385 40.981C65.572 40.981 66.6683 39.8836 66.6683 38.649C66.6683 37.4144 65.709 36.317 64.3385 36.317Z" fill="#86BE3F" fill-opacity="0.58"/>
<path d="M64.3385 54.5612C63.1051 54.5612 62.0088 55.6586 62.0088 56.8931C62.0088 58.1277 63.1051 59.2251 64.3385 59.2251C65.572 59.2251 66.6683 58.1277 66.6683 56.8931C66.6683 55.5214 65.709 54.5612 64.3385 54.5612Z" fill="#86BE3F" fill-opacity="0.58"/>
<path d="M64.3385 72.6681C63.1051 72.6681 62.0088 73.7655 62.0088 75.0001C62.0088 76.2346 63.1051 77.332 64.3385 77.332C65.572 77.332 66.6683 76.2346 66.6683 75.0001C66.6683 73.6283 65.709 72.6681 64.3385 72.6681Z" fill="#86BE3F" fill-opacity="0.58"/>
<path d="M64.3385 90.775C63.1051 90.775 62.0088 91.8724 62.0088 93.107C62.0088 94.3416 63.1051 95.439 64.3385 95.439C65.572 95.439 66.6683 94.3416 66.6683 93.107C66.6683 91.8724 65.709 90.775 64.3385 90.775Z" fill="#86BE3F" fill-opacity="0.58"/>
<path d="M80.3727 0.102661C79.1393 0.102661 78.043 1.20006 78.043 2.43463C78.043 3.6692 79.1393 4.7666 80.3727 4.7666C81.6061 4.7666 82.7025 3.6692 82.7025 2.43463C82.7025 1.20006 81.7432 0.102661 80.3727 0.102661Z" fill="#86BE3F" fill-opacity="0.58"/>
<path d="M80.3727 18.2096C79.1393 18.2096 78.043 19.307 78.043 20.5416C78.043 21.7761 79.1393 22.8735 80.3727 22.8735C81.6061 22.8735 82.7025 21.7761 82.7025 20.5416C82.7025 19.307 81.7432 18.2096 80.3727 18.2096Z" fill="#86BE3F" fill-opacity="0.58"/>
<path d="M80.3727 36.317C79.1393 36.317 78.043 37.4144 78.043 38.649C78.043 39.8836 79.1393 40.981 80.3727 40.981C81.6061 40.981 82.7025 39.8836 82.7025 38.649C82.7025 37.4144 81.7432 36.317 80.3727 36.317Z" fill="#86BE3F" fill-opacity="0.58"/>
<path d="M80.3727 54.5612C79.1393 54.5612 78.043 55.6586 78.043 56.8931C78.043 58.1277 79.1393 59.2251 80.3727 59.2251C81.6061 59.2251 82.7025 58.1277 82.7025 56.8931C82.7025 55.5214 81.7432 54.5612 80.3727 54.5612Z" fill="#86BE3F" fill-opacity="0.58"/>
<path d="M80.3727 72.6681C79.1393 72.6681 78.043 73.7655 78.043 75.0001C78.043 76.2346 79.1393 77.332 80.3727 77.332C81.6061 77.332 82.7025 76.2346 82.7025 75.0001C82.7025 73.6283 81.7432 72.6681 80.3727 72.6681Z" fill="#86BE3F" fill-opacity="0.58"/>
<path d="M80.3727 90.775C79.1393 90.775 78.043 91.8724 78.043 93.107C78.043 94.3416 79.1393 95.439 80.3727 95.439C81.6061 95.439 82.7025 94.3416 82.7025 93.107C82.7025 91.8724 81.7432 90.775 80.3727 90.775Z" fill="#86BE3F" fill-opacity="0.58"/>
</g>
<defs>
<clipPath id="clip0_150_1563">
<rect width="36.728" height="95.3364" fill="white" transform="translate(0.630859 0.102661)"/>
</clipPath>
<clipPath id="clip1_150_1563">
<rect width="36.728" height="95.3364" fill="white" transform="translate(45.9746 0.102661)"/>
</clipPath>
</defs>
</svg>
