<svg width="63" height="62" viewBox="0 0 63 62" fill="none" xmlns="http://www.w3.org/2000/svg">
<circle cx="31.1631" cy="31" r="31" fill="#F5F5F5"/>
<path d="M30.7651 35.1225L32.3927 33.4948C32.9116 32.9759 32.9116 32.1347 32.3927 31.6158C31.874 31.0968 31.0326 31.0968 30.5137 31.6158L28.8861 33.2437C28.6494 32.357 28.8787 31.3717 29.5742 30.6762C29.7283 30.5221 30.1349 30.2877 30.8711 30.0518C31.5616 29.8306 32.3814 29.657 33.1907 29.5247C33.7236 29.4376 34.2381 29.3708 34.6883 29.3203C34.6376 29.7706 34.5708 30.2851 34.4837 30.8177C34.3514 31.6271 34.1781 32.4469 33.9569 33.1374C33.7209 33.8739 33.4863 34.2802 33.3322 34.4344C32.6368 35.1298 31.6518 35.3594 30.7651 35.1225L30.7651 35.1225Z" fill="#86BE3F"/>
<path fill-rule="evenodd" clip-rule="evenodd" d="M35.2846 15.3757V16.7511H38.0358C40.315 16.7511 42.1626 18.5988 42.1626 20.878V42.8874C42.1626 45.1667 40.315 47.0143 38.0358 47.0143H24.2802C22.001 47.0143 20.1533 45.1667 20.1533 42.8874V20.878C20.1533 18.5988 22.001 16.7511 24.2802 16.7511H27.0314V15.3757C27.0314 14.616 27.6471 14 28.4068 14H33.9092C34.6689 14 35.2849 14.616 35.2849 15.3757H35.2846ZM37.395 27.8269C37.4159 27.437 37.2702 27.0563 36.9938 26.7799C36.6902 26.4762 36.2864 26.3589 35.8659 26.3839C35.7175 26.3932 35.3736 26.4163 34.9038 26.4605C34.2794 26.5187 33.4249 26.6143 32.5129 26.7633C31.6069 26.9114 30.6111 27.1173 29.7157 27.4043C28.868 27.6758 27.9133 28.0791 27.2668 28.7253C25.454 30.5383 25.1706 33.3017 26.4169 35.4116L26.2944 35.5341C25.7571 36.0714 25.7571 36.9423 26.2944 37.4795C26.8314 38.0168 27.7025 38.0168 28.2395 37.4795L28.3623 37.357C30.4722 38.6031 33.2356 38.3199 35.0484 36.5069C35.6946 35.8607 36.0979 34.9059 36.3696 34.0579C36.6564 33.1628 36.8625 32.1667 37.0104 31.2608C37.1593 30.3488 37.2549 29.4943 37.3135 28.8701C37.3459 28.5229 37.3756 28.1749 37.3949 27.8269L37.395 27.8269Z" fill="#86BE3F"/>
</svg>
