<svg width="9" height="13" viewBox="0 0 9 13" fill="none" xmlns="http://www.w3.org/2000/svg">
<path d="M5.72735 5.20671C6.17927 5.20671 6.54564 5.59532 6.54564 6.07466C6.54564 6.55389 6.17927 6.9425 5.72735 6.9425C5.27555 6.9425 4.90918 6.55389 4.90918 6.07467C4.90918 5.59532 5.27555 5.20671 5.72735 5.20671Z" fill="#1E1E1E"/>
<path d="M4.09045 8.6783C4.09045 9.15753 3.72408 9.54614 3.27228 9.54614C2.82088 9.54614 2.4541 9.15753 2.4541 8.6783C2.4541 8.19896 2.82088 7.81024 3.27228 7.81024C3.72408 7.81035 4.09045 8.19896 4.09045 8.6783Z" fill="#1E1E1E"/>
<path d="M4.09045 3.47151C4.09045 3.95074 3.72408 4.33923 3.27228 4.33923C2.82088 4.33923 2.4541 3.95074 2.4541 3.47151C2.4541 2.99216 2.82088 2.60344 3.27228 2.60344C3.72408 2.60366 4.09045 2.99216 4.09045 3.47151Z" fill="#1E1E1E"/>
<path d="M1.63613 11.2816C1.63613 11.7609 1.26998 12.1494 0.818067 12.1494C0.366667 12.1494 -1.67727e-08 11.7609 -3.74676e-08 11.2816C-5.81575e-08 10.8023 0.366694 10.4137 0.818067 10.4137C1.26998 10.4138 1.63613 10.8023 1.63613 11.2816Z" fill="#1E1E1E"/>
<path d="M1.63646 0.867756C1.63646 1.34698 1.27009 1.7356 0.818067 1.7356C0.366667 1.7356 -1.67777e-08 1.34698 -3.74676e-08 0.867756C0.000104911 0.388613 0.366882 -8.39396e-05 0.818282 -8.39596e-05C1.27019 -8.39796e-05 1.63646 0.388641 1.63646 0.867756Z" fill="#1E1E1E"/>
<path d="M8.18146 5.20671C8.63337 5.20671 8.99963 5.59532 8.99963 6.07467C8.99963 6.55389 8.63337 6.9425 8.18146 6.9425C7.72955 6.9425 7.36328 6.55389 7.36328 6.07467C7.36328 5.59532 7.72955 5.20671 8.18146 5.20671Z" fill="#1E1E1E"/>
<path d="M6.54553 8.67818C6.54553 9.15741 6.17926 9.54602 5.72735 9.54602C5.27606 9.54602 4.90918 9.15741 4.90918 8.67818C4.90918 8.19884 5.27606 7.81011 5.72735 7.81011C6.17916 7.81023 6.54553 8.19884 6.54553 8.67818Z" fill="#1E1E1E"/>
<path d="M6.54553 3.47151C6.54553 3.95074 6.17926 4.33923 5.72735 4.33923C5.27606 4.33923 4.90918 3.95074 4.90918 3.47151C4.90918 2.99217 5.27606 2.60367 5.72735 2.60367C6.17916 2.60367 6.54553 2.99217 6.54553 3.47151Z" fill="#1E1E1E"/>
<path d="M4.09143 11.2816C4.09143 11.7609 3.72506 12.1494 3.27325 12.1494C2.82185 12.1494 2.45508 11.7609 2.45508 11.2816C2.45508 10.8023 2.82185 10.4137 3.27325 10.4137C3.72506 10.4138 4.09143 10.8023 4.09143 11.2816Z" fill="#1E1E1E"/>
<path d="M4.09143 0.867757C4.09143 1.34698 3.72506 1.7356 3.27325 1.7356C2.82185 1.7356 2.45508 1.34699 2.45508 0.867757C2.45497 0.388614 2.82177 -8.20322e-05 3.27325 -8.20522e-05C3.72506 -8.20722e-05 4.09143 0.388642 4.09143 0.867757Z" fill="#1E1E1E"/>
</svg>
