<svg width="7" height="7" viewBox="0 0 7 7" fill="none" xmlns="http://www.w3.org/2000/svg">
<path d="M2.61176 6.12246L4.23934 4.49482C4.75828 3.97587 4.75828 3.13471 4.23934 2.61576C3.72067 2.0968 2.87927 2.0968 2.36033 2.61576L0.73275 4.24366C0.496032 3.35699 0.725384 2.37167 1.42083 1.67623C1.57496 1.52209 1.98159 1.28773 2.71781 1.0518C3.40825 0.830586 4.2281 0.656989 5.03738 0.524688C5.57026 0.437624 6.08475 0.370814 6.53501 0.320312C6.48425 0.770619 6.41744 1.28509 6.33038 1.81772C6.19808 2.62709 6.02475 3.4469 5.80355 4.13736C5.56762 4.87388 5.333 5.28024 5.17888 5.43438C4.48346 6.12982 3.49843 6.35943 2.61179 6.12248L2.61176 6.12246Z" fill="#86BE3F"/>
</svg>
